<?xml version="1.0" standalone="no"?>
<!DOCTYPE svg PUBLIC "-//W3C//DTD SVG 20010904//EN"
 "http://www.w3.org/TR/2001/REC-SVG-20010904/DTD/svg10.dtd">
<svg version="1.0" xmlns="http://www.w3.org/2000/svg"
 width="768.000000pt" height="549.000000pt" viewBox="0 0 768.000000 549.000000"
 preserveAspectRatio="xMidYMid meet">

<g transform="translate(0.000000,549.000000) scale(0.100000,-0.100000)"
fill="#000000" stroke="none">
<path d="M3763 4510 c-36 -21 -87 -103 -104 -165 -9 -32 -41 -69 -164 -190
-134 -132 -155 -157 -174 -208 -11 -32 -21 -62 -21 -66 0 -21 -120 -116 -189
-149 -93 -45 -186 -134 -224 -212 -45 -93 -60 -201 -54 -392 l5 -168 -37 -9
c-20 -6 -74 -19 -121 -31 -156 -38 -216 -83 -246 -187 -57 -197 86 -497 281
-589 76 -36 136 -32 258 16 155 61 290 133 304 161 8 15 13 67 13 136 l0 113
59 29 c32 16 86 39 121 51 l62 21 37 -25 c70 -49 196 -26 253 45 l31 39 82 0
c45 0 104 -7 131 -15 55 -16 110 -20 118 -6 3 4 34 11 70 15 55 5 74 3 142
-23 l79 -29 1 -104 c0 -90 4 -112 25 -154 26 -52 69 -87 128 -104 59 -17 260
-50 344 -57 72 -6 79 -4 102 17 36 34 31 47 -6 16 -34 -29 -70 -34 -89 -11 -9
11 -17 12 -31 4 -15 -8 -19 -6 -19 8 0 13 -3 14 -12 5 -7 -7 -27 -12 -45 -12
-41 0 -43 20 -9 65 21 27 29 31 60 27 20 -2 36 -8 36 -13 0 -20 18 -7 38 30
28 49 28 57 -2 65 -13 3 -31 9 -39 12 -11 4 -25 -8 -44 -38 -15 -24 -36 -49
-45 -56 -10 -7 -18 -19 -18 -26 0 -18 -22 -36 -50 -41 -34 -6 -189 30 -177 41
13 13 171 23 184 12 10 -8 20 -5 38 12 31 29 70 109 59 119 -5 4 -35 17 -66
29 l-57 21 -36 -49 c-48 -66 -113 -120 -143 -120 -68 0 -112 67 -112 171 0 51
2 60 14 50 11 -9 15 -7 19 9 5 18 11 20 44 14 95 -15 137 106 54 154 -24 14
-29 22 -24 41 l6 25 -31 -23 c-39 -27 -40 -19 -5 32 22 31 28 35 35 23 10 -18
43 -21 53 -6 9 14 51 12 62 -2 6 -7 13 -30 17 -51 7 -37 26 -43 26 -8 0 10 9
30 20 44 34 43 -1 107 -59 107 -11 0 -23 5 -26 10 -4 6 11 10 39 10 43 0 45
-2 66 -46 20 -41 22 -56 17 -142 -4 -54 -9 -118 -13 -143 l-6 -46 70 -22 c39
-11 73 -21 76 -21 5 0 26 66 26 83 0 4 -20 7 -45 7 l-45 0 0 120 c0 88 -3 121
-13 127 -19 12 -62 72 -55 78 8 8 115 -34 133 -51 11 -11 15 -39 15 -102 0
-62 3 -83 10 -72 6 9 8 42 4 81 -7 78 -1 85 55 68 l40 -12 7 -80 c5 -58 9 -75
16 -63 6 10 7 43 3 76 l-7 58 38 -8 c81 -18 113 -67 113 -175 1 -62 -20 -178
-41 -230 -6 -16 -27 -50 -45 -74 -37 -49 -44 -74 -12 -45 78 70 130 260 108
394 -18 111 -14 108 -226 185 -169 62 -196 69 -265 69 -70 1 -79 -1 -115 -30
-21 -17 -60 -62 -87 -101 -45 -67 -50 -71 -74 -62 -13 5 -27 8 -29 5 -2 -2 22
-14 54 -25 105 -38 138 -66 117 -98 -8 -13 -24 -18 -50 -17 -42 1 -229 76
-254 101 -28 29 49 6 143 -43 63 -32 96 -44 113 -40 37 10 29 23 -14 23 -23 0
-65 14 -112 38 -112 56 -144 91 -75 83 19 -2 35 -3 35 -2 0 0 -20 14 -45 30
-54 34 -90 98 -82 147 3 18 19 79 36 137 17 58 33 128 37 155 4 28 15 72 25
98 26 66 24 96 -11 162 l-30 56 20 59 c37 109 20 208 -46 274 -28 28 -117 76
-140 76 -18 0 -37 89 -23 106 13 16 6 130 -11 180 -12 35 -70 76 -70 50 0 -20
-23 -20 -60 -1 -17 9 -30 11 -30 6 0 -19 34 -35 77 -37 50 -2 65 -10 37 -21
-20 -7 -34 -22 -34 -37 0 -4 16 -5 36 -1 24 4 34 3 29 -4 -3 -6 -13 -11 -21
-11 -8 0 -12 -4 -9 -10 3 -5 14 -10 24 -10 14 0 18 -7 17 -30 -1 -34 -6 -36
-47 -14 -47 24 -46 9 0 -18 22 -13 41 -26 41 -30 0 -4 -11 -28 -25 -54 -14
-26 -25 -62 -25 -80 0 -19 -4 -34 -10 -34 -15 0 -12 83 5 123 22 54 19 62 -27
73 -26 5 -42 14 -41 22 8 37 -59 -25 -76 -71 -13 -34 -14 -70 -2 -63 5 3 12
-9 15 -28 4 -19 13 -39 20 -45 11 -9 10 -2 -2 32 -10 27 -13 53 -8 72 l8 30
23 -27 c21 -24 24 -25 39 -10 11 12 19 13 27 5 8 -8 8 -13 0 -17 -6 -4 -11
-34 -11 -67 0 -49 3 -59 17 -59 15 0 14 -2 -3 -15 -18 -13 -18 -14 -1 -15 20
0 47 54 47 96 0 26 1 26 23 10 12 -9 50 -30 84 -47 114 -56 167 -149 144 -252
-6 -29 -23 -76 -36 -105 -28 -59 -32 -83 -13 -64 21 21 35 13 52 -29 11 -27
14 -53 10 -77 -10 -55 -61 -202 -81 -231 -52 -82 -50 -75 -26 -62 12 6 24 11
27 11 14 0 4 -79 -15 -114 l-21 -39 36 -78 c20 -43 36 -83 36 -89 0 -20 -33
-75 -37 -62 -8 21 -32 13 -47 -15 -12 -22 -15 -24 -16 -9 0 18 -1 18 -18 3
-24 -22 -54 -23 -46 -2 8 19 -16 20 -42 0 -23 -18 -54 -19 -54 -3 0 7 12 22
26 33 23 18 25 24 17 55 -9 33 -12 35 -46 32 -50 -5 -47 10 13 68 28 27 50 54
50 61 0 7 -8 36 -17 65 -13 44 -14 60 -5 91 10 32 9 38 -7 49 -17 12 -17 19
-6 84 11 63 7 87 -10 60 -15 -25 -25 -5 -25 53 0 84 15 131 55 175 33 37 33
38 15 60 -31 38 -53 108 -42 128 9 16 17 5 51 -67 40 -84 81 -139 81 -108 0 8
-7 39 -15 69 -29 109 -14 180 39 180 27 0 49 -64 41 -124 l-6 -51 23 35 c50
76 15 174 -78 217 l-52 24 -36 -25 c-30 -20 -46 -24 -100 -22 -76 3 -96 16
-97 65 -1 20 -4 47 -8 61 -6 21 -9 16 -15 -27 -3 -29 -10 -53 -15 -53 -28 0
-131 187 -131 239 0 27 -15 49 -26 38 -2 -2 5 -33 16 -68 24 -77 25 -91 3 -64
-14 19 -15 17 -9 -25 3 -25 8 -55 12 -67 4 -16 0 -23 -17 -28 -16 -5 -26 -3
-32 6 -49 81 -58 93 -53 67 3 -14 9 -33 12 -41 4 -12 -2 -14 -31 -12 -20 2
-43 9 -51 16 -22 18 -16 -6 7 -27 15 -13 22 -15 28 -6 5 8 22 -1 54 -28 40
-33 81 -52 175 -85 15 -5 17 -111 2 -149 -7 -20 -17 -26 -39 -26 -57 0 -78 15
-96 72 -18 54 -40 88 -58 88 -14 0 -97 -69 -97 -81 0 -13 39 8 72 39 32 30 37
27 49 -25 23 -99 10 -153 -66 -272 -38 -60 -38 -77 0 -41 14 13 28 20 32 16
12 -11 15 -159 5 -175 -8 -11 -14 -10 -36 4 -26 17 -26 17 11 -61 37 -77 38
-82 36 -182 l-2 -103 40 -24 c21 -14 39 -30 39 -35 0 -5 11 -12 25 -16 49 -12
19 -29 -61 -34 -43 -3 -85 -9 -91 -13 -17 -11 -16 -32 2 -47 19 -16 20 -50 1
-50 -8 0 -26 4 -39 9 -22 9 -26 18 -32 78 -4 37 -15 85 -26 106 -24 47 -24 50
2 36 20 -10 21 -9 14 23 -9 41 -29 74 -55 88 -16 9 -20 8 -21 -7 0 -11 -9 -1
-20 22 -10 22 -17 49 -15 59 3 10 -6 40 -18 65 -45 88 -62 300 -28 356 18 29
17 30 -7 90 -22 51 -25 76 -26 165 0 95 3 110 27 155 15 28 70 93 128 150 115
112 140 145 198 261 22 44 47 86 56 93 9 8 42 17 74 21 55 6 56 7 29 18 -39
17 -57 15 -94 -8z m42 -610 c3 -5 -1 -10 -9 -10 -8 0 -18 5 -21 10 -3 6 1 10
9 10 8 0 18 -4 21 -10z m353 -37 c-14 -16 -28 -36 -31 -45 -8 -21 -27 -24 -27
-4 0 29 14 49 44 62 43 18 43 18 14 -13z m-98 -39 c6 -6 5 -35 -3 -74 -12 -55
-19 -68 -47 -87 -36 -25 -70 -29 -101 -13 -16 9 -19 22 -19 86 0 75 0 75 33
90 34 15 121 14 137 -2z m-759 -66 c6 -24 20 -67 31 -96 17 -45 19 -58 9 -96
-15 -62 -14 -167 4 -251 8 -38 15 -76 15 -82 0 -24 -105 -11 -114 14 -5 11 0
13 17 8 66 -19 61 -23 52 46 -4 35 -11 111 -14 169 l-6 105 -24 -64 c-19 -49
-30 -65 -52 -73 l-27 -9 19 -62 c29 -97 14 -78 -20 26 -52 155 -51 208 5 285
16 21 16 22 0 16 -22 -8 -62 -78 -76 -134 -6 -25 -23 -74 -37 -109 l-25 -63
22 -48 c16 -34 21 -62 19 -101 -1 -31 5 -78 14 -108 19 -60 24 -231 7 -231 -5
0 -17 11 -26 25 -28 43 -72 64 -111 53 -18 -5 -50 -8 -71 -6 l-37 3 -6 60
c-12 111 -9 288 6 360 27 125 89 220 182 278 59 37 76 41 68 17 -11 -34 8 -22
70 45 34 36 68 65 77 65 12 0 21 -14 29 -42z m594 -137 c21 -18 49 -31 79 -35
42 -7 46 -9 40 -29 -13 -44 -34 -57 -91 -57 l-53 0 0 36 c0 21 -4 33 -10 29
-5 -3 -10 -17 -10 -30 0 -32 -8 -35 -54 -20 -44 15 -73 41 -78 69 -2 14 7 21
42 30 25 7 54 17 65 24 29 16 34 15 70 -17z m-124 -113 c65 -36 68 -44 48
-124 -10 -38 -15 -44 -37 -44 -20 0 -23 -3 -14 -12 7 -7 12 -18 12 -25 0 -24
-48 -63 -76 -63 -26 0 -26 1 -18 43 4 23 8 90 8 150 0 59 4 107 9 107 4 0 35
-15 68 -32z m229 -40 c-1 -21 -36 -91 -69 -136 -33 -45 -84 -82 -113 -82 -27
0 -7 42 28 60 28 15 29 17 26 82 l-3 67 33 5 c18 3 44 7 58 9 14 3 28 5 33 6
4 0 7 -5 7 -11z m78 -424 c9 -39 8 -53 -4 -71 -8 -13 -18 -23 -23 -23 -5 0
-22 -20 -38 -45 -19 -30 -35 -45 -49 -45 -12 0 -42 -3 -67 -6 -43 -6 -47 -5
-58 20 -7 14 -18 26 -24 26 -7 0 -18 7 -25 15 -7 8 -20 15 -29 15 -9 0 -30 9
-48 20 l-32 19 37 107 c20 59 44 111 52 115 8 4 46 14 83 23 59 13 77 23 125
67 l57 52 16 -121 c9 -66 22 -142 27 -168z m-693 135 c6 -6 10 -75 10 -165 l0
-156 38 -34 37 -34 -27 -11 c-70 -28 -168 -59 -185 -59 -19 0 -24 15 -8 25 18
11 10 24 -28 49 -85 53 -87 65 -36 179 22 49 41 111 48 155 l10 74 66 -7 c36
-4 70 -11 75 -16z m345 -9 c0 -16 -23 -60 -32 -60 -4 0 -8 16 -8 35 0 28 4 35
20 35 11 0 20 -4 20 -10z m-290 -222 c0 -19 10 -34 30 -50 23 -16 30 -30 30
-55 l0 -33 -32 13 c-46 19 -62 56 -53 125 7 57 25 57 25 0z m-401 -4 c35 -25
140 -171 172 -239 66 -140 86 -314 44 -378 -17 -26 -51 -44 -63 -33 -11 12 17
119 38 141 13 13 20 35 20 59 0 40 0 40 -69 14 -24 -9 -24 -9 -17 -118 5 -75
4 -110 -3 -110 -7 0 -11 35 -11 93 0 52 -2 96 -5 99 -9 8 -86 -17 -87 -28 0
-5 5 -48 12 -95 7 -48 10 -93 8 -100 -3 -8 -10 20 -17 61 -21 131 -17 123 -61
116 -21 -3 -51 -11 -65 -16 -26 -10 -26 -10 -19 -92 6 -76 5 -85 -16 -108
l-21 -25 5 87 c6 88 1 122 -15 112 -6 -3 -7 -36 -3 -78 5 -61 3 -80 -14 -119
-19 -43 -24 -47 -55 -47 -20 0 -45 8 -58 20 -17 14 -19 18 -6 14 14 -5 16 -2
10 12 -5 16 -4 17 8 8 8 -6 25 -15 39 -19 22 -7 23 -6 11 9 -7 9 -20 16 -28
16 -22 0 -146 104 -181 154 -38 53 -40 62 -8 41 25 -17 76 -12 76 7 0 6 -10 8
-22 5 -26 -7 -68 26 -68 54 0 21 36 49 62 49 26 0 60 -58 47 -82 -7 -14 -6
-18 6 -18 9 0 22 -15 30 -34 21 -49 35 -54 35 -13 0 36 -30 99 -83 179 -40 59
-62 71 -54 30 5 -24 0 -34 -29 -60 -18 -17 -34 -40 -34 -51 0 -12 -4 -21 -9
-21 -16 0 -43 83 -49 148 -2 34 -8 62 -12 62 -4 0 -10 18 -14 40 -10 66 31
129 85 130 61 0 201 -148 266 -282 23 -48 43 -78 53 -77 8 0 40 8 70 18 50 16
55 20 53 45 -4 50 -67 170 -145 274 -43 56 -78 104 -78 107 0 2 19 9 42 15
l41 12 41 -48 c23 -26 49 -57 58 -68 38 -46 15 6 -27 59 -25 32 -44 60 -42 61
6 6 82 22 107 23 14 1 36 -6 49 -15z m1641 2 c0 -2 -7 -7 -16 -10 -8 -3 -12
-2 -9 4 6 10 25 14 25 6z m-1899 -98 c91 -97 179 -269 148 -289 -28 -18 -45
-7 -79 53 -39 69 -168 211 -212 234 -34 17 -29 30 15 43 62 18 77 13 128 -41z
m1230 -35 c16 -16 -12 -22 -106 -22 -166 -2 -282 18 -197 32 50 9 292 1 303
-10z m-331 -72 c0 -15 -9 -36 -20 -46 -24 -22 -26 -35 -4 -35 27 0 9 -25 -21
-28 -44 -6 -62 36 -23 53 13 6 25 19 27 30 12 65 41 83 41 26z m-176 23 c13
-5 14 -9 5 -20 -6 -8 -16 -14 -21 -14 -5 0 -43 -13 -85 -30 -77 -31 -117 -37
-128 -20 -7 12 84 55 159 75 28 8 52 14 53 14 1 1 9 -2 17 -5z m241 -22 c14
-31 27 -28 15 4 -10 24 -9 25 23 22 24 -2 33 -8 35 -25 2 -16 -2 -23 -13 -23
-11 0 -15 -5 -12 -15 8 -19 -13 -31 -24 -14 -7 11 -9 11 -9 -2 0 -23 -25 -42
-47 -36 -16 4 -15 6 5 12 25 8 29 23 7 31 -19 8 -21 78 -2 72 6 -3 16 -14 22
-26z m-190 -31 c-12 -10 -241 -101 -255 -101 -62 0 177 107 245 109 11 1 15
-3 10 -8z m-1092 -129 c2 -46 0 -77 -4 -70 -5 7 -8 49 -8 93 1 98 6 88 12 -23z
m51 -184 c15 -29 34 -63 43 -75 9 -13 11 -23 5 -23 -6 0 -17 11 -24 24 -43 77
-68 126 -68 131 0 16 19 -9 44 -57z m626 -92 c0 -22 -11 -46 -21 -46 -10 0
-12 43 -2 53 11 12 23 8 23 -7z m-520 -51 c11 -13 10 -14 -4 -9 -9 3 -16 10
-16 15 0 13 6 11 20 -6z m420 -19 c0 -21 -12 -29 -86 -60 -48 -20 -89 -35 -91
-33 -2 2 0 12 3 21 4 11 9 14 13 7 4 -6 33 9 75 39 38 28 73 50 77 50 5 0 9
-11 9 -24z m-366 -31 c16 -12 17 -15 4 -15 -8 0 -21 7 -28 15 -16 19 -1 19 24
0z"/>
<path d="M3070 2803 c0 -85 47 -238 78 -257 5 -3 25 0 45 6 46 14 47 31 8 115
-35 73 -108 183 -121 183 -6 0 -10 -21 -10 -47z"/>
<path d="M2555 2730 c-21 -40 -19 -50 9 -50 13 0 35 -9 50 -21 14 -11 31 -17
37 -13 7 4 18 0 24 -10 11 -14 14 -15 25 -1 24 29 -64 125 -114 125 -8 0 -22
-13 -31 -30z"/>
<path d="M3034 2694 c-4 -16 -15 -38 -25 -49 -17 -19 -17 -24 -2 -82 l15 -61
47 14 c25 7 47 14 48 14 3 0 -63 180 -69 186 -4 3 -10 -7 -14 -22z"/>
<path d="M2601 2481 c-12 -8 -10 -12 12 -22 30 -14 43 -8 34 16 -7 17 -25 19
-46 6z"/>
<path d="M2826 2391 c-4 -6 -12 -9 -17 -6 -5 4 -9 -21 -9 -58 0 -63 1 -65 25
-63 23 1 25 4 25 56 0 58 -12 91 -24 71z"/>
<path d="M3905 4460 c-3 -5 -21 -10 -39 -10 -38 0 -68 -27 -92 -85 -9 -22 -23
-48 -31 -57 -11 -12 -13 -26 -7 -50 l7 -33 13 49 c24 91 85 146 163 146 51 -1
41 -13 -20 -24 -20 -3 -44 -15 -53 -25 -16 -18 -15 -18 36 0 29 10 54 16 56
15 1 -2 -10 -25 -27 -52 -17 -29 -32 -70 -35 -101 -9 -70 0 -67 14 4 9 42 21
66 46 91 19 19 34 39 34 44 0 7 17 8 45 5 72 -10 57 10 -38 47 -20 8 -40 22
-43 31 -7 17 -20 20 -29 5z"/>
<path d="M3951 4311 c-15 -9 -60 -175 -60 -221 -1 -22 3 -19 24 18 14 24 33
56 44 71 20 27 20 28 1 59 -11 17 -15 34 -10 37 5 3 11 1 15 -5 3 -5 14 -10
23 -10 25 0 46 16 37 29 -5 9 -10 9 -21 0 -18 -15 -48 -3 -40 16 6 17 6 18
-13 6z"/>
<path d="M3813 4288 c-18 -23 -21 -44 -14 -79 l8 -34 11 40 c6 22 19 50 27 63
15 21 15 22 -3 22 -11 0 -24 -6 -29 -12z"/>
<path d="M3641 4215 c-24 -51 -27 -75 -8 -75 7 0 18 -12 24 -27 8 -24 11 -15
14 60 2 48 1 87 -2 87 -4 0 -16 -20 -28 -45z"/>
<path d="M4035 4230 c3 -5 10 -10 16 -10 5 0 9 5 9 10 0 6 -7 10 -16 10 -8 0
-12 -4 -9 -10z"/>
<path d="M3856 4144 c-4 -14 -5 -28 -3 -31 3 -2 8 8 11 23 4 14 5 28 3 31 -3
2 -8 -8 -11 -23z"/>
<path d="M3531 4106 c-18 -25 -53 -62 -79 -81 -65 -50 -82 -84 -82 -169 0 -92
25 -176 65 -223 18 -21 36 -35 40 -31 4 4 -5 53 -19 110 -14 57 -26 109 -26
116 0 23 20 12 26 -15 3 -16 9 -37 14 -48 7 -15 9 -10 9 23 1 24 7 55 15 70 7
15 17 59 21 97 4 39 18 96 32 129 13 32 22 60 20 63 -3 2 -19 -16 -36 -41z"/>
<path d="M3585 3601 c-37 -51 -72 -70 -135 -72 -21 -1 -19 -4 18 -20 42 -20
43 -21 36 -57 -4 -20 -7 -77 -8 -127 0 -96 17 -148 63 -189 26 -23 27 -11 6
58 -20 66 -19 94 6 141 19 35 20 40 5 50 -30 23 -16 93 36 174 52 83 28 119
-27 42z"/>
<path d="M4118 3538 c-17 -26 -48 -115 -48 -136 0 -10 7 -13 21 -9 20 5 20 3
14 -80 -7 -84 -7 -85 14 -74 27 15 39 39 51 103 6 29 20 77 31 106 l22 53 -28
30 c-34 35 -58 37 -77 7z"/>
<path d="M4207 3358 c-23 -60 -39 -142 -35 -175 4 -25 7 -22 36 37 22 44 32
79 32 110 0 68 -14 79 -33 28z"/>
<path d="M3436 3135 c9 -22 44 -40 44 -22 0 17 -20 37 -37 37 -7 0 -10 -7 -7
-15z"/>
<path d="M3570 2925 c-10 -12 -9 -15 5 -15 14 0 15 -3 5 -15 -19 -23 -9 -24
35 -4 24 10 33 18 21 18 -12 1 -16 6 -12 16 4 11 -1 15 -18 15 -13 0 -29 -7
-36 -15z"/>
<path d="M4221 2821 c-15 -27 -14 -30 9 -24 21 6 27 28 11 38 -6 3 -15 -3 -20
-14z"/>
<path d="M4143 2808 c2 -7 12 -13 22 -13 10 0 20 6 23 13 2 7 -6 12 -23 12
-17 0 -25 -5 -22 -12z"/>
<path d="M3562 2784 c4 -20 34 -41 44 -31 8 8 -24 47 -38 47 -5 0 -8 -7 -6
-16z"/>
<path d="M5177 2740 c-3 -22 -19 -62 -35 -88 -16 -26 -33 -65 -36 -87 -4 -22
-9 -47 -12 -56 -5 -17 32 -39 65 -39 45 0 82 214 49 285 -16 35 -25 31 -31
-15z"/>
<path d="M4772 2743 c5 -26 38 -29 38 -4 0 15 -6 21 -21 21 -14 0 -19 -5 -17
-17z"/>
<path d="M4740 2641 c0 -28 24 -60 33 -44 15 27 16 61 1 67 -28 11 -34 7 -34
-23z"/>
<path d="M5011 2631 c-8 -5 -20 -28 -27 -51 l-12 -41 35 -14 c65 -27 69 -23
79 59 l7 56 -34 0 c-19 0 -40 -4 -48 -9z"/>
<path d="M4656 2531 c-25 -28 -88 -37 -119 -16 -36 23 -40 2 -11 -62 27 -63
55 -75 111 -46 39 21 87 74 97 109 6 18 3 21 -19 16 -15 -2 -25 0 -25 7 0 17
-15 13 -34 -8z"/>
<path d="M5031 2380 c-35 -56 -32 -61 11 -25 16 14 36 25 44 25 9 0 25 5 36
11 20 11 20 12 -12 25 -18 8 -36 14 -40 14 -5 0 -22 -22 -39 -50z"/>
<path d="M3720 2080 c0 -11 -7 -20 -15 -20 -12 0 -15 -15 -15 -79 0 -58 4 -82
15 -91 12 -10 15 -39 15 -140 0 -104 -3 -129 -15 -134 -12 -4 -15 -24 -15 -86
l0 -80 119 0 c109 0 120 2 126 19 3 11 12 22 20 25 22 8 21 154 0 162 -12 5
-15 30 -15 140 0 112 2 134 15 134 12 0 15 16 15 85 l0 85 -125 0 c-118 0
-125 -1 -125 -20z m230 -69 c0 -50 -3 -59 -20 -64 -19 -5 -20 -14 -20 -146 0
-130 2 -142 20 -153 17 -11 20 -24 20 -75 l0 -63 -106 0 -107 0 6 56 c3 31 13
64 21 73 13 14 16 45 16 164 0 140 -1 147 -20 147 -18 0 -20 7 -20 60 l0 60
105 0 105 0 0 -59z"/>
<path d="M4088 2076 c-24 -21 -29 -36 -34 -96 -6 -61 -5 -72 11 -84 16 -11 17
-26 13 -136 -5 -113 -7 -125 -27 -138 -18 -13 -21 -24 -21 -93 0 -75 1 -79 22
-79 13 0 106 -5 208 -11 l186 -12 27 25 c23 21 27 36 36 119 5 52 10 99 11
104 6 30 -2 35 -52 34 -58 0 -117 -17 -67 -18 15 -1 41 -4 58 -7 31 -6 31 -7
31 -69 0 -34 -3 -77 -6 -94 l-7 -32 -176 6 c-97 3 -185 8 -196 10 -18 4 -20
11 -17 64 3 47 8 61 21 66 21 6 31 76 31 216 0 64 -4 90 -14 96 -10 6 -12 23
-8 67 l5 58 51 -6 c28 -3 72 -6 98 -6 36 0 48 -4 51 -17 3 -10 5 -3 6 15 l1
32 -87 0 c-49 0 -97 2 -108 5 -12 3 -31 -4 -47 -19z"/>
<path d="M3233 2076 c-139 -11 -142 -11 -164 -41 -20 -25 -23 -38 -20 -94 2
-54 7 -70 27 -88 23 -21 24 -28 24 -143 0 -98 -3 -122 -15 -126 -16 -7 -19
-42 -8 -119 l6 -47 95 4 c91 4 95 5 116 33 17 24 22 48 26 125 l5 95 9 -124 9
-123 45 6 c25 3 66 6 93 6 41 0 52 5 79 33 31 31 31 34 25 102 -5 52 -11 73
-26 83 -12 8 -19 25 -19 44 0 19 -9 41 -22 55 -21 22 -21 23 -3 56 24 46 18
175 -9 191 -10 6 -34 28 -54 49 -21 22 -44 36 -56 36 -12 -1 -85 -7 -163 -13z
m244 -75 c32 -37 42 -140 17 -186 -18 -34 -18 -35 4 -58 14 -15 22 -36 22 -59
0 -20 8 -46 19 -60 11 -14 23 -48 27 -76 l6 -51 -33 -6 c-19 -3 -59 -5 -89 -3
l-55 3 -6 100 c-8 128 -12 137 -58 133 l-36 -3 -1 -120 -1 -120 -39 -7 c-21
-4 -58 -7 -81 -7 l-43 -1 0 61 c0 46 4 65 17 74 15 11 15 25 5 150 -7 77 -16
141 -21 144 -12 8 -33 123 -24 132 5 4 73 11 153 16 159 9 159 9 217 -56z"/>
<path d="M3313 1932 c-38 -4 -47 -26 -35 -82 8 -37 26 -46 68 -36 21 6 24 12
24 49 0 55 -16 73 -57 69z"/>
<path d="M4713 2037 c-4 -8 -15 -16 -24 -19 -23 -9 -35 -144 -15 -167 13 -14
13 -30 0 -131 -13 -98 -19 -118 -39 -135 -19 -16 -24 -33 -29 -92 -6 -69 -5
-73 16 -78 39 -8 360 -55 379 -55 10 0 30 11 45 25 22 20 29 40 42 119 18 114
15 121 -65 131 -31 4 -62 9 -68 11 -7 3 -27 -7 -44 -22 -18 -14 -34 -24 -36
-22 -5 5 11 149 21 201 3 15 14 36 24 45 16 15 40 109 40 158 0 7 -45 18 -107
28 -130 19 -130 19 -140 3z m174 -28 l52 -10 -6 -52 c-4 -36 -12 -57 -27 -69
-18 -14 -23 -38 -38 -160 -9 -79 -15 -144 -13 -146 1 -2 19 -6 39 -9 34 -5 37
-4 47 27 l12 32 61 -7 c33 -3 62 -7 62 -8 1 -1 -3 -46 -9 -100 l-10 -98 -66 6
c-73 8 -285 42 -314 51 -16 5 -18 13 -12 57 5 34 14 57 27 68 29 22 65 285 42
310 -16 18 -18 66 -4 104 10 26 13 27 58 21 26 -4 70 -11 99 -17z"/>
<path d="M2672 2009 c-56 -11 -55 -10 -112 -91 -48 -69 -50 -73 -50 -141 0
-38 10 -130 21 -203 l22 -134 51 -39 c66 -51 87 -55 175 -37 83 17 98 28 152
108 52 76 61 101 48 135 -6 15 -14 53 -19 83 -8 46 -8 39 -5 -40 5 -93 4 -97
-24 -142 -38 -60 -78 -80 -166 -85 -69 -4 -70 -4 -113 34 -51 45 -63 82 -89
272 l-16 124 22 43 c36 66 57 81 144 95 71 12 81 11 110 -5 77 -42 88 -57 99
-142 13 -105 33 -125 24 -26 -8 92 -26 136 -63 156 -16 8 -35 22 -42 30 -15
18 -94 20 -169 5z"/>
<path d="M4285 1930 c-10 -16 -24 -213 -18 -256 5 -39 8 -42 41 -48 44 -7 52
-2 52 35 0 35 -15 37 -47 7 l-23 -21 0 114 c0 82 4 122 15 143 8 15 15 30 15
32 0 8 -29 3 -35 -6z"/>
<path d="M2120 1853 l-135 -68 -27 -75 c-15 -41 -27 -91 -27 -110 -1 -22 25
-97 68 -200 l70 -165 63 -22 c35 -12 69 -23 77 -23 26 0 261 123 261 137 0 7
7 24 15 37 14 20 14 26 2 38 -8 7 -17 30 -21 50 -4 21 -12 41 -19 45 -7 5 -20
33 -31 63 -10 30 -31 76 -47 103 -16 26 -29 54 -29 62 0 8 -16 50 -35 94 -19
43 -35 84 -35 90 0 18 -10 14 -150 -56z m163 -30 c14 -38 29 -75 32 -83 4 -11
-11 -24 -50 -45 l-56 -30 -18 24 c-17 23 -18 23 -52 6 -19 -10 -35 -19 -37
-20 -2 -2 4 -18 13 -36 13 -25 19 -29 26 -18 8 12 11 12 19 -1 5 -8 10 -23 10
-34 0 -16 -2 -17 -16 -5 -15 12 -16 11 -9 -11 12 -40 73 -170 80 -170 3 0 20
7 36 16 25 12 30 20 25 39 -15 58 -26 75 -49 75 -18 0 -26 8 -34 35 l-11 36
69 34 c37 19 72 35 77 35 5 0 28 -44 51 -97 24 -54 52 -117 63 -141 13 -25 17
-46 12 -51 -5 -5 -55 -32 -112 -61 -94 -47 -108 -52 -154 -48 -75 8 -94 28
-155 168 -82 188 -83 190 -72 239 18 81 30 94 150 154 62 31 117 57 124 57 7
0 24 -30 38 -67z m-43 -383 c0 -5 -4 -10 -10 -10 -5 0 -10 5 -10 10 0 6 5 10
10 10 6 0 10 -4 10 -10z"/>
<path d="M2721 1863 l-33 -4 7 -57 c4 -31 13 -88 21 -125 8 -38 14 -79 14 -93
0 -22 4 -24 45 -24 25 0 45 3 45 8 1 44 -46 302 -54 300 -6 0 -26 -3 -45 -5z
m28 -131 c14 -66 15 -164 1 -141 -5 8 -13 52 -19 96 -6 44 -11 84 -12 89 -3
19 1 28 10 19 5 -6 14 -34 20 -63z"/>
<path d="M5434 1841 c-100 -43 -109 -55 -159 -216 -27 -89 -34 -102 -62 -115
-26 -12 -36 -28 -57 -85 -14 -38 -24 -70 -23 -71 1 -1 41 -20 89 -42 86 -40
87 -40 122 -24 31 15 38 26 61 94 15 43 31 80 36 83 17 11 9 -21 -26 -111 -19
-49 -35 -95 -35 -102 0 -7 33 -29 74 -48 64 -31 81 -35 120 -29 27 4 47 13 51
24 35 85 43 121 33 149 -10 25 -5 42 40 145 60 134 64 175 28 254 -22 47 -30
54 -100 87 -88 42 -110 43 -192 7z m180 -24 c67 -32 74 -38 94 -85 12 -28 22
-63 22 -77 0 -15 -22 -86 -50 -159 -53 -140 -56 -156 -39 -173 10 -10 -12 -84
-31 -106 -8 -10 -160 50 -160 63 0 4 16 49 36 100 42 110 41 131 -4 144 -41
11 -41 12 -83 -111 -18 -51 -37 -93 -42 -93 -22 0 -147 64 -147 75 0 6 7 32
16 58 11 33 21 47 37 49 18 2 32 30 82 153 60 149 60 150 105 172 61 30 79 29
164 -10z"/>
<path d="M5515 1710 c-3 -5 -12 -27 -20 -49 l-14 -41 36 -15 c19 -8 39 -15 43
-15 8 0 43 91 37 96 -13 12 -78 31 -82 24z"/>
</g>
</svg>
