<svg xmlns="http://www.w3.org/2000/svg" viewBox="0 0 32 40" x="0px" y="0px"><circle cx="11.2" cy="9.6" r="3.4667"/><path d="m11.2,0C5.8987,0,1.6,4.2987,1.6,9.6c0,12.8,9.6,22.4,9.6,22.4,0,0,.9707-.9706,2.304-2.7093l.032-.0534c-1.1413-1.632-1.8027-3.6266-1.8027-5.7706,0-5.1307,3.8294-9.376,8.7787-10.0373.192-1.2374.288-2.5174.288-3.8294C20.8,4.2987,16.5014,0,11.2,0Zm0,14.6667c-2.7947,0-5.0667-2.272-5.0667-5.0667s2.272-5.0667,5.0667-5.0667,5.0667,2.272,5.0667,5.0667-2.272,5.0667-5.0667,5.0667Z"/><rect x="17.3333" y="21.0667" width="1.6" height="4.8" rx=".2667" ry=".2667"/><rect x="24.8" y="21.0667" width="1.6" height="4.8" rx=".2667" ry=".2667"/><path d="m21.8667,14.9333c-4.7146,0-8.5333,3.8187-8.5333,8.5333s3.8187,8.5333,8.5333,8.5333,8.5333-3.8187,8.5333-8.5333-3.8186-8.5333-8.5333-8.5333Zm4.2667,12.5333h-1.0667c-1.024,0-1.8667-.8426-1.8667-1.8667v-1.3333h-2.6667v1.3333c0,1.024-.8426,1.8667-1.8667,1.8667h-1.0667c-1.024,0-1.8667-.8426-1.8667-1.8667v-4.2667c0-1.024.8427-1.8667,1.8667-1.8667h1.0667c1.024,0,1.8667.8426,1.8667,1.8667v1.3333h2.6667v-1.3333c0-1.024.8427-1.8667,1.8667-1.8667h1.0667c1.024,0,1.8667.8426,1.8667,1.8667v4.2667c0,1.024-.8426,1.8667-1.8667,1.8667Z"/><text x="0" y="47" fill="#000000" font-size="5px" font-weight="bold" font-family="'Helvetica Neue', Helvetica, Arial-Unicode, Arial, Sans-serif">Created by Iqbal Widianto</text><text x="0" y="52" fill="#000000" font-size="5px" font-weight="bold" font-family="'Helvetica Neue', Helvetica, Arial-Unicode, Arial, Sans-serif">from the Noun Project</text></svg>